<?xml version="1.0" standalone="no"?>
<!DOCTYPE svg PUBLIC "-//W3C//DTD SVG 20010904//EN"
 "http://www.w3.org/TR/2001/REC-SVG-20010904/DTD/svg10.dtd">
<svg version="1.0" xmlns="http://www.w3.org/2000/svg"
 width="1410" height="215" viewBox="80 515 1410 215"
 preserveAspectRatio="xMidYMid meet">

<g transform="translate(0.000000,1270.000000) scale(0.100000,-0.100000)"
fill="#1A7A4A" stroke="none">
<path d="M6550 7324 c-14 -9 -38 -34 -55 -55 -27 -37 -33 -40 -63 -34 -28 5
-37 2 -61 -24 -32 -34 -46 -71 -27 -71 7 0 17 5 23 11 8 8 20 6 43 -6 74 -38
182 -1 231 79 49 80 -13 148 -91 100z m40 -59 c18 -22 2 -35 -49 -42 -36 -5
-41 -3 -35 11 6 15 48 45 65 46 4 0 12 -7 19 -15z"/>
<path d="M3420 7258 c-41 -43 -56 -52 -79 -50 -37 4 -91 -40 -91 -75 0 -22 2
-24 15 -13 12 10 26 9 70 -5 68 -21 108 -15 162 24 92 66 96 171 7 171 -29 0
-43 -9 -84 -52z m86 -19 c10 -17 -18 -39 -59 -46 -44 -7 -48 7 -11 36 29 23
59 27 70 10z"/>
<path d="M5243 7184 c-46 -48 -55 -54 -73 -44 -26 14 -52 0 -79 -44 -28 -45
-28 -60 0 -45 17 8 33 7 76 -6 46 -15 61 -15 98 -5 71 20 125 84 125 149 0 36
-17 51 -59 51 -30 0 -43 -9 -88 -56z m84 -20 c8 -21 -5 -31 -49 -39 -31 -6
-38 -4 -38 8 0 19 37 47 63 47 9 0 20 -7 24 -16z"/>
<path d="M5943 7067 c-62 -28 -115 -57 -118 -66 -13 -35 15 -34 131 5 93 31
118 44 125 62 25 66 8 66 -138 -1z"/>
<path d="M6505 7060 c-33 -64 -33 -84 -5 -341 30 -270 39 -378 40 -446 0 -24
4 -43 10 -43 35 0 44 253 17 515 -9 83 -19 189 -22 236 -9 107 -17 123 -40 79z"/>
<path d="M2955 6999 c-126 -57 -144 -71 -126 -93 9 -11 19 -13 30 -7 9 5 60
23 114 41 59 20 101 40 107 51 14 25 12 59 -2 59 -7 -1 -62 -23 -123 -51z"/>
<path d="M3414 7013 c-27 -63 -26 -91 5 -365 17 -147 31 -310 31 -363 0 -109
15 -125 38 -39 21 78 5 429 -34 762 -6 52 -20 54 -40 5z"/>
<path d="M4725 6955 c-103 -46 -120 -57 -120 -77 0 -13 5 -23 10 -23 23 0 211
69 228 83 16 15 25 73 10 71 -5 0 -62 -24 -128 -54z"/>
<path d="M3154 6969 c-9 -18 -14 -43 -11 -58 25 -142 71 -425 81 -503 10 -82
10 -100 -1 -110 -19 -16 -109 -23 -117 -9 -15 24 -46 11 -61 -25 -20 -48 -19
-66 5 -94 27 -31 25 -62 -5 -111 -40 -63 -102 -119 -164 -148 -47 -22 -69 -26
-136 -25 -44 1 -88 3 -97 5 -9 2 -18 0 -19 -6 -4 -16 125 -86 168 -92 125 -17
257 101 303 271 9 33 23 63 31 67 8 3 35 16 60 27 100 44 113 145 65 476 l-27
179 21 39 20 39 -40 46 c-22 25 -40 50 -40 54 0 20 -21 7 -36 -22z"/>
<path d="M4083 6899 c-131 -83 -143 -93 -143 -120 0 -16 3 -29 6 -29 3 0 66
35 140 77 107 61 137 83 149 110 15 31 13 54 -3 52 -4 0 -71 -41 -149 -90z"/>
<path d="M5210 6894 c-25 -57 -24 -115 10 -389 11 -88 23 -220 27 -292 3 -73
10 -133 15 -133 40 0 43 268 9 615 -13 127 -27 234 -31 239 -5 4 -18 -14 -30
-40z"/>
<path d="M6044 6903 c-16 -53 -53 -68 -64 -25 -8 34 -23 30 -43 -12 -10 -20
-24 -39 -32 -43 -23 -8 -45 16 -45 49 0 19 -4 28 -12 26 -16 -6 -26 -41 -27
-100 -1 -37 3 -50 18 -58 29 -15 56 -12 82 9 18 15 28 16 46 8 51 -23 103 37
103 117 0 39 -17 58 -26 29z"/>
<path d="M4936 6853 c-15 -35 -16 -44 -2 -108 15 -71 70 -407 82 -501 l6 -52
-37 -12 c-34 -11 -53 -10 -116 5 -23 6 -27 2 -43 -40 l-18 -46 27 -39 c31 -44
28 -61 -16 -126 -85 -125 -216 -182 -357 -156 -77 14 -66 -10 26 -59 87 -46
134 -50 207 -15 88 41 160 136 190 253 17 66 17 66 72 82 71 20 113 97 113
206 0 28 -11 131 -25 230 -29 210 -30 244 -10 271 8 10 15 25 15 33 0 12 -74
101 -90 109 -4 1 -14 -14 -24 -35z"/>
<path d="M4259 6825 c-32 -21 -49 -43 -49 -62 0 -2 18 -2 40 2 42 7 100 -1
100 -15 0 -10 -65 -36 -113 -45 -58 -11 -48 -35 14 -35 57 0 106 19 149 60 68
63 43 120 -54 120 -38 0 -61 -6 -87 -25z"/>
<path d="M2956 6833 c-4 -5 -14 -23 -21 -41 -8 -18 -21 -35 -30 -38 -23 -9
-45 14 -45 47 0 38 -15 37 -29 -2 -15 -42 -14 -112 1 -127 19 -19 73 -14 92 7
15 16 22 17 47 8 37 -14 58 -3 81 44 22 42 24 109 4 109 -7 0 -16 -14 -20 -31
-5 -24 -10 -30 -28 -27 -13 2 -24 11 -26 23 -5 25 -16 38 -26 28z"/>
<path d="M4815 6786 c-3 -9 -7 -23 -10 -32 -8 -24 -49 -14 -53 14 -5 35 -27
26 -45 -18 -12 -32 -20 -40 -41 -40 -21 0 -25 5 -28 32 -4 45 -25 46 -38 1
-18 -60 -10 -106 22 -121 24 -11 32 -10 60 5 18 10 53 18 77 18 40 0 45 3 62
35 22 43 29 112 11 118 -6 2 -14 -3 -17 -12z"/>
<path d="M3795 6578 c-28 -92 -29 -84 9 -145 34 -55 56 -111 71 -176 9 -43 29
-27 37 32 11 76 -13 182 -57 248 -35 53 -52 64 -60 41z"/>
<path d="M5890 6507 l-24 -44 27 -149 c15 -82 27 -161 27 -176 0 -53 -85 -87
-142 -57 -33 18 -46 67 -53 204 -4 72 -10 134 -13 139 -8 14 -50 -74 -58 -122
-6 -40 -10 -45 -63 -72 -124 -63 -192 -190 -121 -228 39 -20 133 -11 172 18
20 14 33 19 36 12 2 -6 13 -26 26 -44 56 -84 196 -64 236 33 l13 29 52 -57
c47 -52 56 -58 93 -58 48 0 76 22 94 74 19 57 13 175 -16 301 -15 63 -32 140
-37 170 -13 70 -21 78 -48 44 -28 -36 -27 -63 14 -248 43 -196 43 -196 6 -196
-33 0 -76 30 -95 68 -17 33 -41 142 -64 286 -9 60 -22 111 -28 113 -6 2 -21
-16 -34 -40z m-230 -352 c0 -39 -19 -49 -80 -43 -49 5 -47 21 7 51 64 35 73
34 73 -8z"/>
<path d="M4204 6524 c-28 -7 -106 -73 -101 -87 2 -6 33 -11 73 -12 54 -1 80
-7 122 -29 30 -15 52 -29 50 -32 -2 -2 -39 -9 -81 -14 -129 -18 -196 -60 -236
-146 -44 -93 -184 -113 -263 -37 l-29 28 -19 -25 c-29 -38 -34 -82 -15 -139
14 -44 15 -53 1 -79 -40 -78 -378 -247 -653 -326 -226 -65 -347 -80 -628 -80
-270 0 -361 10 -530 59 -188 54 -374 146 -520 255 -44 33 -81 57 -84 55 -17
-18 197 -245 282 -299 109 -70 269 -131 439 -167 120 -26 433 -36 600 -20 587
57 1065 284 1148 543 l11 38 63 -1 c80 -1 128 19 163 70 31 45 29 45 118 7 81
-34 139 -35 161 -1 25 38 21 96 -9 148 l-26 45 31 6 c73 14 216 6 314 -19 54
-14 104 -25 111 -25 17 0 48 63 41 82 -3 8 -35 20 -72 27 -74 15 -175 60 -281
127 -70 43 -130 59 -181 48z m-25 -308 c36 -19 59 -46 39 -46 -26 0 -106 31
-119 46 -9 12 -6 14 20 14 18 0 44 -6 60 -14z"/>
<path d="M14405 6468 c-32 -18 -75 -60 -69 -70 3 -4 29 -6 57 -3 107 12 95
-34 -15 -56 -32 -6 -58 -15 -58 -20 0 -27 90 -29 141 -4 64 32 115 96 103 128
-12 33 -115 50 -159 25z"/>
<path d="M2423 6431 c-33 -21 -53 -49 -53 -75 0 -11 10 -16 33 -16 41 0 126
-24 152 -44 19 -14 17 -16 -35 -40 -74 -35 -111 -34 -154 4 l-35 31 -61 -25
c-128 -52 -248 -71 -445 -70 -281 1 -428 39 -545 142 l-52 45 -34 -39 c-42
-49 -74 -112 -74 -147 0 -34 -58 -78 -188 -143 -97 -48 -113 -71 -46 -67 78 5
144 34 204 90 l58 53 47 -24 c51 -28 121 -42 154 -31 12 4 31 16 41 28 19 19
24 20 66 9 139 -37 489 -41 634 -7 41 10 111 33 154 51 l80 34 27 -26 c36 -35
67 -33 190 9 129 45 225 60 304 47 65 -11 73 -7 106 46 23 38 19 54 -17 54
-56 0 -186 34 -289 76 -136 55 -179 62 -222 35z m-1174 -167 c24 -40 25 -44
12 -44 -22 0 -64 47 -58 63 10 26 23 20 46 -19z"/>
<path d="M14750 6391 c-35 -70 -37 -91 -10 -91 13 0 25 -14 40 -47 38 -84 80
-224 80 -264 0 -38 -1 -39 -27 -33 -40 10 -75 29 -97 53 -28 31 -43 26 -58
-21 -11 -38 -17 -43 -46 -46 -46 -5 -83 21 -80 55 5 43 -18 37 -47 -12 -34
-60 -73 -77 -163 -73 -62 3 -68 5 -80 31 -11 22 -19 27 -35 23 -61 -14 -382
-59 -617 -85 -598 -68 -1032 -99 -1735 -126 -639 -25 -1971 -20 -2635 10 -58
3 -163 7 -235 10 -946 41 -1649 118 -2084 230 -169 44 -241 82 -299 158 -24
31 -49 57 -57 57 -15 0 -75 -71 -97 -115 -9 -16 -18 -47 -22 -68 -9 -46 -56
-83 -193 -151 -52 -26 -91 -51 -88 -56 10 -15 77 -12 135 7 34 11 72 34 105
65 57 52 71 56 113 34 15 -8 56 -20 90 -27 56 -12 63 -11 82 6 20 18 23 18 83
2 296 -83 899 -170 1477 -212 699 -50 1157 -66 2145 -70 926 -4 1422 6 2015
40 662 39 1129 80 1587 141 l193 26 32 -24 c27 -19 46 -23 100 -23 59 0 72 4
113 33 25 17 49 32 53 32 3 0 30 -10 58 -21 64 -27 96 -20 126 24 l21 33 45
-23 c116 -58 182 0 182 159 0 59 -19 157 -45 233 -21 61 -74 173 -86 180 -4 3
-22 -21 -39 -54z m-8176 -293 c16 -39 14 -42 -13 -33 -24 7 -45 40 -36 55 12
20 35 9 49 -22z"/>
<path d="M2594 6026 c-73 -45 -139 -88 -148 -95 -18 -15 -21 -46 -6 -56 13 -8
257 133 280 163 20 25 26 57 13 65 -5 2 -67 -32 -139 -77z"/>
<path d="M3330 6068 c-16 -22 -30 -46 -30 -53 0 -13 72 -65 89 -65 11 0 71 83
71 99 0 9 -79 61 -93 61 -4 0 -20 -19 -37 -42z"/>
<path d="M2157 5988 l-25 -33 -31 18 c-40 24 -54 18 -87 -34 l-27 -43 27 -23
c46 -39 74 -40 104 -3 l27 32 28 -22 c34 -27 49 -22 82 29 31 51 31 55 -2 79
-51 36 -68 36 -96 0z"/>
<path d="M1005 5792 c-119 -74 -140 -91 -143 -114 -2 -17 1 -28 9 -28 17 0
253 137 271 157 22 25 32 73 16 73 -7 0 -76 -39 -153 -88z"/>
<path d="M5537 5732 c-134 -85 -166 -117 -141 -142 13 -13 273 141 290 171 17
31 18 59 2 58 -7 0 -75 -40 -151 -87z"/>
<path d="M14847 5761 c-15 -22 -24 -46 -21 -54 5 -13 76 -67 88 -67 2 0 18 23
36 50 36 56 33 68 -21 96 -41 21 -51 18 -82 -25z"/>
<path d="M6565 5691 c-117 -73 -141 -92 -143 -114 -2 -18 1 -27 11 -27 19 0
236 126 264 153 27 27 41 77 22 77 -8 0 -77 -40 -154 -89z"/>
<path d="M3610 5603 c-74 -47 -138 -90 -142 -97 -12 -18 -9 -36 6 -42 16 -6
253 128 279 158 20 23 23 68 5 67 -7 0 -74 -39 -148 -86z"/>
<path d="M14875 5502 c-135 -84 -161 -110 -137 -134 13 -13 253 122 282 159
22 29 27 63 8 63 -7 0 -76 -40 -153 -88z"/>
</g>
</svg>
